# AST/ASF file generated using VICON BodyLanguage
# -----------------------------------------------
:version 1.10
:name VICON
:units
  mass 1.0
  length 0.45
  angle deg
:documentation
   .ast/.asf automatically generated from VICON data using
   VICON BodyBuilder and BodyLanguage model FoxedUp or BRILLIANT.MOD
:root
   order TX TY TZ RX RY RZ
   axis XYZ
   position 0 0 0  
   orientation 0 0 0 
:bonedata
  begin
     id 1 
     name lhipjoint
     direction 0.575328 -0.747301 0.332475 
     length 2.40933 
     axis 0 0 0  XYZ
  end
  begin
     id 2 
     name lfemur
     direction 0.34202 -0.939693 0  
     length 7.31453  
     axis 0 0 20  XYZ
    dof rx ry rz
    limits (-160.0 20.0)
           (-70.0 70.0)
           (-60.0 70.0)
  end
  begin
     id 3 
     name ltibia
     direction 0.34202 -0.939693 0   
     length 7.82185   
     axis 0 0 20   XYZ
    dof rx
    limits (-10.0 170.0)
  end
  begin
     id 4 
     name lfoot
     direction 0.0795993 -0.218697 0.972541   
     length 2.19173   
     axis -90 7.62852e-016 20   XYZ
    dof rx rz
    limits (-45.0 90.0)
           (-70.0 20.0)
  end
  begin
     id 5 
     name ltoes
     direction 1.53537e-011 -4.21894e-011 1   
     length 1.10023   
     axis -90 7.62852e-016 20   XYZ
    dof rx
    limits (-90.0 20.0)
  end
  begin
     id 6 
     name rhipjoint
     direction -0.513884 -0.783789 0.348708   
     length 2.29716  
     axis 0 0 0  XYZ 
  end
  begin
     id 7 
     name rfemur
     direction -0.34202 -0.939693 0   
     length 7.59573   
     axis 0 0 -20   XYZ
    dof rx ry rz
    limits (-160.0 20.0)
           (-70.0 70.0)
           (-70.0 60.0)
  end
  begin
     id 8 
     name rtibia
     direction -0.34202 -0.939693 0   
     length 7.66402   
     axis 0 0 -20   XYZ
    dof rx
    limits (-10.0 170.0)
 end
 begin
     id 9 
     name rfoot
     direction -0.137793 -0.378584 0.915253   
     length 2.27056  
     axis -90 -7.62852e-016 -20   XYZ
    dof rx rz
    limits (-45.0 90.0)
           (-20.0 70.0)
  end
  begin
     id 10 
     name rtoes
     direction -1.53493e-011 -4.22159e-011 1   
     length 1.11766   
     axis -90 -7.62852e-016 -20   XYZ
    dof rx
    limits (-90.0 20.0)
  end
  begin
     id 11 
     name lowerback
     direction -0.00732775 0.998356 -0.05685   
     length 2.16513   
     axis 0 0 0   XYZ
    dof rx ry rz
    limits (-20.0 45.0)
           (-30.0 30.0)
           (-30.0 30.0)
  end
  begin
     id 12 
     name upperback
     direction 0.0218081 0.999627 -0.0164647   
     length 2.16755   
     axis 0 0 0   XYZ
    dof rx ry rz
    limits (-20.0 45.0)
           (-30.0 30.0)
           (-30.0 30.0)
  end
  begin
     id 13 
     name thorax
     direction 0.02365 0.999661 0.0108914   
     length 2.16932   
     axis 0 0 0   XYZ
    dof rx ry rz
    limits (-20.0 45.0)
           (-30.0 30.0)
           (-30.0 30.0)
  end
  begin
     id 14 
     name lowerneck
     direction -0.0523929 0.978385 0.200044   
     length 1.63877   
     axis 0 0 0   XYZ
    dof rx ry rz
    limits (-20.0 45.0)
           (-30.0 30.0)
           (-30.0 30.0)
  end
  begin
     id 15 
     name upperneck
     direction 0.0448674 0.981321 -0.187074   
     length 1.69014   
     axis 0 0 0   XYZ
    dof rx ry rz
    limits (-20.0 45.0)
           (-30.0 30.0)
           (-30.0 30.0)
  end
  begin
     id 16
     name head
     direction 0.0199089 0.996118 -0.0857429  
     length 1.70094  
     axis 0 0 0   XYZ
    dof rx ry rz
    limits (-20.0 45.0)
           (-30.0 30.0)
           (-30.0 30.0)
  end
  begin
     id 17 
     name lclavicle
     direction 0.940366 0.30191 -0.156722  
     length 3.37521  
     axis 0 0 0   XYZ
    dof ry rz
    limits (-20.0 10.0)
           (0.0 20.0)
  end
  begin
     id 18 
     name lhumerus
     direction 1 -4.4897e-011 -1.7911e-027   
     length 5.25287   
     axis 180 -30 -90   XYZ
    dof rx ry rz
    limits (-60.0 90.0)
           (-90.0 90.0)
           (-90.0 90.0)
  end
  begin
     id 19
     name lradius
     direction 1 -4.48951e-011 1.04424e-027   
     length 3.51014   
     axis 180 -30 -90   XYZ
    dof rx
    limits (-10.0 170.0)
  end
  begin
     id 20
     name lwrist
     direction 1 -4.48997e-011 -9.5942e-028   
     length 1.75507   
     axis 8.48502e-016 90 90   XYZ
    dof ry
    limits (-180.0 0.0)
 end
  begin
     id 21 
     name lhand
     direction 1 -4.48831e-011 -1.90777e-027   
     length 0.706179   
     axis 1.22306e-015 90 90   XYZ
    dof rx rz
    limits (-90.0 90.0)
           (-45.0 45.0)
  end
  begin
     id 22 
     name lfingers
     direction 1 -4.49108e-011 -3.85244e-027   
     length 0.569339   
     axis 2.44611e-015 90 90   XYZ
    dof rx
    limits (0.0 90.0)
  end
  begin
     id 23
     name lthumb
     direction 0.707107 -6.34953e-011 0.707107   
     length 0.817461   
     axis -90 45 -1.62303e-014   XYZ
    dof rx rz
    limits (-45.0 45.0)
           (-45.0 45.0)
  end
  begin
     id 24 
     name rclavicle
     direction -0.905329 0.382405 -0.184787   
     length 3.30787  
     axis 0 0 0   XYZ 
    dof ry rz
    limits (-10.0 20.0)
           (-20.0 0.0)
  end
  begin
     id 25 
     name rhumerus
     direction -1 -4.48953e-011 -9.15316e-029  
     length 5.28721   
     axis 180 30 90   XYZ
    dof rx ry rz
    limits (-90.0 60.0)
           (-90.0 90.0)
           (-90.0 90.0)
  end
  begin
     id 26 
     name rradius
     direction -1 -4.48987e-011 9.37824e-028   
     length 3.50544   
     axis 180 30 90   XYZ
    dof rx
    limits (-10.0 170.0)
  end
  begin
     id 27 
     name rwrist
     direction -1 -4.48967e-011 -9.58414e-028   
     length 1.75272   
     axis 8.48502e-016 -90 -90   XYZ
    dof ry
    limits (-180.0 0.0)
  end
  begin
     id 28
     name rhand
     direction -1 -4.48904e-011 -1.91266e-027   
     length 0.884996   
     axis 1.22306e-015 -90 -90   XYZ
    dof rx rz
    limits (-90.0 90.0)
           (-45.0 45.0)
  end
  begin
     id 29
     name rfingers
     direction -1 -4.4909e-011 -3.85015e-027   
     length 0.713507   
     axis 2.44611e-015 -90 -90   XYZ
    dof rx
    limits (0.0 90.0)
  end
  begin
     id 30
     name rthumb
     direction -0.707107 -6.34853e-011 0.707107   
     length 1.02446   
     axis -90 -45 1.62303e-014   XYZ
    dof rx rz
    limits (-45.0 45.0)
           (-45.0 45.0)
  end
:hierarchy
  begin
    root lhipjoint rhipjoint lowerback
    lhipjoint lfemur
    lfemur ltibia
    ltibia lfoot
    lfoot ltoes
    rhipjoint rfemur
    rfemur rtibia
    rtibia rfoot
    rfoot rtoes
    lowerback upperback
    upperback thorax
    thorax lowerneck lclavicle rclavicle
    lowerneck upperneck
    upperneck head
    lclavicle lhumerus
    lhumerus lradius
    lradius lwrist
    lwrist lhand lthumb
    lhand lfingers
    rclavicle rhumerus
    rhumerus rradius
    rradius rwrist
    rwrist rhand rthumb
    rhand rfingers
  end

#!OML:ASF F:\twosubjects\two\Thursday\Session 1\justin.ASF
:FULLY-SPECIFIED
:DEGREES
145
root 7.36584 9.36918 -21.4524 -25.1251 -2.83803 -0.323008
lowerback 37.4778 1.02857 -0.510222
upperback 15.4746 1.14537 1.75227
thorax -1.56451 0.429648 1.72029
lowerneck -22.4841 -3.45743 -10.3249
upperneck 7.51394 -2.81885 8.75316
head 6.15949 -0.949503 4.19096
rclavicle 1.59028e-015 -5.1684e-015
rhumerus 20.9479 37.372 -71.6905
rradius 62.6572
rwrist 6.43371
rhand 11.7097 6.18698
rfingers 7.12502
rthumb 36.7461 -19.9427
lclavicle 1.59028e-015 -5.1684e-015
lhumerus 22.0521 -37.3281 71.9035
lradius 60.2374
lwrist -33.8045
lhand 20.1469 39.1871
lfingers 7.12502
lthumb 44.6719 62.8147
rfemur -67.7154 -17.6288 8.36013
rtibia 86.8861
rfoot 5.80297 4.5075
rtoes -9.34135
lfemur -67.0823 19.1163 -4.02836
ltibia 88.9278
lfoot 2.16885 -17.734
ltoes -7.00143
146
root 7.3651 9.36914 -21.4517 -25.0127 -2.74364 0.168132
lowerback 37.3968 1.20193 -1.01584
upperback 15.4209 1.18624 1.64553
thorax -1.60395 0.431076 1.85906
lowerneck -22.2728 -3.4539 -10.2107
upperneck 7.29631 -2.83763 8.6054
head 6.05376 -0.97101 4.11838
rclavicle 1.25234e-014 6.75868e-015
rhumerus 20.9242 37.1396 -71.7828
rradius 62.5188
rwrist 6.94895
rhand 12.523 6.82029
rfingers 7.12502
rthumb 37.5152 -19.1092
lclavicle 1.25234e-014 6.75868e-015
lhumerus 21.8641 -37.1954 72.146
lradius 60.15
lwrist -33.996
lhand 21.0367 38.5324
lfingers 7.12502
lthumb 45.4996 61.8325
rfemur -67.9366 -17.5498 7.87629
rtibia 86.877
rfoot 5.8964 4.56408
rtoes -9.52568
lfemur -67.1397 19.0943 -4.56416
ltibia 88.8966
lfoot 1.89567 -17.8324
ltoes -8.39027
147
root 7.36564 9.36838 -21.4497 -24.8708 -2.60387 0.546728
lowerback 37.2475 1.31281 -1.42396
upperback 15.4149 1.18794 1.60193
thorax -1.56764 0.414449 2.02733
lowerneck -22.4365 -3.45323 -10.3724
upperneck 7.43525 -2.79394 8.70783
head 6.12382 -0.943427 4.18562
rclavicle 2.78299e-015 1.27222e-014
rhumerus 20.9003 36.8393 -71.9199
rradius 62.4314
rwrist 7.59351
rhand 13.2277 7.60207
rfingers 7.12502
rthumb 38.1809 -18.1477
lclavicle 2.78299e-015 1.27222e-014
lhumerus 21.8673 -36.9452 72.3966
lradius 59.9522
lwrist -34.1773
lhand 22.3477 37.4354
lfingers 7.12502
lthumb 46.7155 60.226
rfemur -68.1521 -17.549 7.43197
rtibia 86.8927
rfoot 6.01019 4.61194
rtoes -9.26455
lfemur -67.2689 19.0477 -5.04984
ltibia 88.8783
lfoot 1.92338 -17.7425
ltoes -8.69731
148
root 7.36442 9.3707 -21.4494 -24.8765 -2.66826 0.475
lowerback 37.2175 1.33557 -1.39691
upperback 15.4601 1.22727 1.65722
thorax -1.51167 0.43132 2.05883
lowerneck -22.5454 -3.42124 -10.2381
upperneck 7.48509 -2.75553 8.51929
head 6.147 -0.93444 4.10609
rclavicle 6.55989e-015 1.94809e-014
rhumerus 20.9239 36.7401 -71.9692
rradius 62.3759
rwrist 7.72807
rhand 13.2118 7.76824
rfingers 7.12502
rthumb 38.1659 -17.9857
lclavicle 6.55989e-015 1.94809e-014
lhumerus 22.1375 -37.078 72.1379
lradius 59.9304
lwrist -34.02
lhand 21.7597 37.6572
lfingers 7.12502
lthumb 46.1707 60.6803
rfemur -68.1193 -17.4538 7.48612
rtibia 86.918
rfoot 6.01569 4.5507
rtoes -8.88216
lfemur -67.2301 19.1116 -4.9385
ltibia 88.8733
lfoot 1.93298 -17.8501
ltoes -7.38496
149
root 7.3662 9.36925 -21.4515 -24.8572 -2.66425 0.403402
lowerback 37.1992 1.29064 -1.28348
upperback 15.4518 1.20898 1.63528
thorax -1.51188 0.429495 1.98279
lowerneck -22.2129 -3.3819 -9.78568
upperneck 7.10111 -2.7889 8.07717
head 5.95983 -0.978654 3.87789
rclavicle -7.7526e-015 -4.77083e-015
rhumerus 20.8731 36.6915 -72.0548
rradius 62.3028
rwrist 7.90932
rhand 13.0122 7.93243
rfingers 7.12502
rthumb 37.9774 -17.8729
lclavicle -7.7526e-015 -4.77083e-015
lhumerus 22.2471 -37.369 71.8257
lradius 60.0241
lwrist -33.585
lhand 20.4216 38.2254
lfingers 7.12502
lthumb 44.9276 61.7535
rfemur -68.1477 -17.4791 7.55527
rtibia 86.9396
rfoot 6.05582 4.47033
rtoes -8.63498
lfemur -67.2914 19.0618 -4.88124
ltibia 88.8841
lfoot 2.0091 -17.8729
ltoes -5.76577
150
root 7.36829 9.36706 -21.4542 -24.8281 -2.57185 0.471499
lowerback 37.189 1.26298 -1.31799
upperback 15.3749 1.16389 1.60373
thorax -1.59031 0.408914 1.98204
lowerneck -21.7508 -3.37233 -9.72443
upperneck 6.78114 -2.80884 7.96481
head 5.78466 -1.00352 3.82579
rclavicle 1.59028e-014 3.97569e-016
rhumerus 20.8063 36.7452 -72.1337
rradius 62.1987
rwrist 7.90895
rhand 13.1164 7.87968
rfingers 7.12502
rthumb 38.0758 -17.8989
lclavicle 1.59028e-014 3.97569e-016
lhumerus 21.9341 -37.3776 72.0958
lradius 60.0638
lwrist -33.3999
lhand 20.5012 38.1418
lfingers 7.12502
lthumb 45.0017 61.6407
rfemur -68.2158 -17.6256 7.48385
rtibia 86.9467
rfoot 6.12658 4.49026
rtoes -8.42783
lfemur -67.3869 18.9562 -5.00738
ltibia 88.9118
lfoot 1.78983 -17.7555
ltoes -7.13208
151
root 7.3667 9.36924 -21.4559 -24.8615 -2.58922 0.487033
lowerback 37.2413 1.29162 -1.34568
upperback 15.3173 1.18997 1.60514
thorax -1.67136 0.42133 1.98826
lowerneck -21.7296 -3.37751 -10.0273
upperneck 6.99281 -2.79173 8.34325
head 5.8599 -0.974869 4.00357
rclavicle 6.16232e-015 1.59028e-015
rhumerus 20.8044 36.8494 -72.1242
rradius 62.1833
rwrist 7.5101
rhand 13.373 7.48653
rfingers 7.12502
rthumb 38.318 -18.2255
lclavicle 6.16232e-015 1.59028e-015
lhumerus 21.6839 -37.3031 72.3609
lradius 60.1611
lwrist -33.5529
lhand 21.4763 38.1612
lfingers 7.12502
lthumb 45.9078 61.294
rfemur -68.1699 -17.6318 7.48825
rtibia 86.9361
rfoot 6.15893 4.52193
rtoes -8.47866
lfemur -67.3311 18.9727 -4.98571
ltibia 88.9271
lfoot 1.46964 -17.7632
ltoes -9.24499
152
root 7.36578 9.37174 -21.4562 -24.8829 -2.61253 0.49691
lowerback 37.2382 1.32039 -1.34183
upperback 15.3243 1.22528 1.57679
thorax -1.66317 0.440446 1.94497
lowerneck -22.0396 -3.40644 -10.2875
upperneck 7.37802 -2.79773 8.74243
head 6.04429 -0.948018 4.18165
rclavicle 7.15625e-015 3.57812e-015
rhumerus 20.7416 36.8717 -72.111
rradius 62.3103
rwrist 7.15416
rhand 13.3083 7.17256
rfingers 7.12502
rthumb 38.257 -18.5563
lclavicle 7.15625e-015 3.57812e-015
lhumerus 21.7059 -37.2217 72.3582
lradius 60.1612
lwrist -33.8159
lhand 21.5805 37.914
lfingers 7.12502
lthumb 46.0045 61.0067
rfemur -68.1119 -17.5765 7.47126
rtibia 86.9138
rfoot 6.1723 4.50679
rtoes -8.71613
lfemur -67.2705 19.0047 -4.97362
ltibia 88.9242
lfoot 1.32925 -17.8051
ltoes -10.206
153
root 7.36732 9.37347 -21.4556 -24.8856 -2.60507 0.598275
lowerback 37.1973 1.36934 -1.42542
upperback 15.3254 1.25735 1.54913
thorax -1.65052 0.45386 1.94949
lowerneck -22.0219 -3.3647 -10.0411
upperneck 7.35306 -2.76862 8.41802
head 6.02036 -0.95345 4.03678
rclavicle -4.57205e-015 -5.56597e-015
rhumerus 20.6087 36.8761 -72.1024
rradius 62.3768
rwrist 7.12075
rhand 12.9389 7.18094
rfingers 7.12502
rthumb 37.9081 -18.6432
lclavicle -4.57205e-015 -5.56597e-015
lhumerus 21.7294 -37.1803 72.4088
lradius 59.9704
lwrist -34.101
lhand 21.1394 37.4294
lfingers 7.12502
lthumb 45.595 60.6907
rfemur -68.1097 -17.5664 7.36602
rtibia 86.8973
rfoot 6.1145 4.58543
rtoes -8.73097
lfemur -67.2515 19.043 -5.09386
ltibia 88.9266
lfoot 1.28719 -17.777
ltoes -10.3796
154
root 7.36903 9.37299 -21.4549 -24.8927 -2.61102 0.575625
lowerback 37.2249 1.36618 -1.38053
upperback 15.3104 1.26874 1.55559
thorax -1.67571 0.461829 1.92857
lowerneck -21.7504 -3.27135 -9.49691
upperneck 7.03006 -2.72063 7.75518
head 5.8492 -0.97212 3.73178
rclavicle -2.78299e-015 -3.97569e-015
rhumerus 20.5179 36.8986 -72.1017
rradius 62.4241
rwrist 7.07304
rhand 12.5356 7.01583
rfingers 7.12502
rthumb 37.5271 -18.9105
lclavicle -2.78299e-015 -3.97569e-015
lhumerus 21.898 -37.4554 72.1687
lradius 59.9138
lwrist -34.0201
lhand 20.7792 37.7582
lfingers 7.12502
lthumb 45.2603 61.1545
rfemur -68.0955 -17.5167 7.35662
rtibia 86.9033
rfoot 6.06405 4.59109
rtoes -8.67326
lfemur -67.2747 19.0704 -5.07291
ltibia 88.9412
lfoot 1.85763 -17.7585
ltoes -8.25595
